<svg width="48" height="48" viewBox="0 0 48 48" fill="none" xmlns="http://www.w3.org/2000/svg">
<path fill-rule="evenodd" clip-rule="evenodd" d="M24 1.5C11.5732 1.5 1.5 11.5732 1.5 24C1.5 36.4268 11.5732 46.5 24 46.5C36.4268 46.5 46.5 36.4268 46.5 24C46.5 11.5732 36.4268 1.5 24 1.5ZM24 6C33.9405 6 42 14.0595 42 24C42 27.5939 40.9322 30.9325 39.1172 33.7427L37.3857 32.4023C33.8937 29.7091 27.4583 28.5 24 28.5C20.5418 28.5 14.104 29.7091 10.6143 32.4023L8.88281 33.7471C7.0666 30.9362 6 27.5952 6 24C6 14.0595 14.0595 6 24 6ZM24 9.9375C19.968 9.9375 16.6875 13.218 16.6875 17.25C16.6875 21.282 19.968 24.5625 24 24.5625C28.032 24.5625 31.3125 21.282 31.3125 17.25C31.3125 13.218 28.032 9.9375 24 9.9375ZM24 14.4375C25.5502 14.4375 26.8125 15.6997 26.8125 17.25C26.8125 18.8002 25.5502 20.0625 24 20.0625C22.4498 20.0625 21.1875 18.8002 21.1875 17.25C21.1875 15.6997 22.4498 14.4375 24 14.4375ZM24 33C30.9766 33 34.7282 35.6291 36.4849 36.9463C33.2475 40.0691 28.8529 42 24 42C19.1471 42 14.7525 40.0691 11.5151 36.9463C13.2718 35.6291 17.0234 33 24 33ZM10.623 36.0146C10.8952 36.3145 11.1689 36.6132 11.458 36.8936C11.1685 36.6119 10.8931 36.3151 10.623 36.0146ZM37.3022 36.0938C37.0555 36.365 36.8091 36.6379 36.5464 36.8936C36.8084 36.6394 37.0533 36.3637 37.3022 36.0938Z" fill="#794CFF"/>
</svg>
